<svg width="97" height="24" viewBox="0 0 97 24" fill="none" xmlns="http://www.w3.org/2000/svg">
<path d="M30.8037 19H29.0986L22.0762 8.21582H22.0059C22.0996 9.48145 22.1465 10.6416 22.1465 11.6963V19H20.7666V6.15039H22.4541L29.459 16.8906H29.5293C29.5176 16.7324 29.4912 16.2256 29.4502 15.3701C29.4092 14.5088 29.3945 13.8936 29.4062 13.5244V6.15039H30.8037V19ZM38.1865 19.1758C36.7627 19.1758 35.6377 18.7422 34.8115 17.875C33.9912 17.0078 33.5811 15.8037 33.5811 14.2627C33.5811 12.71 33.9619 11.4766 34.7236 10.5625C35.4912 9.64844 36.5195 9.19141 37.8086 9.19141C39.0156 9.19141 39.9707 9.58984 40.6738 10.3867C41.377 11.1777 41.7285 12.2236 41.7285 13.5244V14.4473H35.0928C35.1221 15.5781 35.4062 16.4365 35.9453 17.0225C36.4902 17.6084 37.2549 17.9014 38.2393 17.9014C39.2764 17.9014 40.3018 17.6846 41.3154 17.251V18.5518C40.7998 18.7744 40.3105 18.9326 39.8477 19.0264C39.3906 19.126 38.8369 19.1758 38.1865 19.1758ZM37.791 10.4131C37.0176 10.4131 36.3994 10.665 35.9365 11.1689C35.4795 11.6729 35.21 12.3701 35.1279 13.2607H40.1641C40.1641 12.3408 39.959 11.6377 39.5488 11.1514C39.1387 10.6592 38.5527 10.4131 37.791 10.4131ZM46.5449 14.0693L43.1963 9.36719H44.8574L47.3975 13.0586L49.9287 9.36719H51.5723L48.2236 14.0693L51.748 19H50.0957L47.3975 15.0977L44.6729 19H43.0205L46.5449 14.0693ZM56.7754 17.9717C57.0332 17.9717 57.2822 17.9541 57.5225 17.9189C57.7627 17.8779 57.9531 17.8369 58.0938 17.7959V18.9121C57.9355 18.9883 57.7012 19.0498 57.3906 19.0967C57.0859 19.1494 56.8105 19.1758 56.5645 19.1758C54.7012 19.1758 53.7695 18.1943 53.7695 16.2314V10.501H52.3896V9.79785L53.7695 9.19141L54.3848 7.13477H55.2285V9.36719H58.0234V10.501H55.2285V16.1699C55.2285 16.75 55.3662 17.1953 55.6416 17.5059C55.917 17.8164 56.2949 17.9717 56.7754 17.9717ZM60.2471 19V6.15039H61.7412V19H60.2471ZM68.166 17.9717C68.4238 17.9717 68.6729 17.9541 68.9131 17.9189C69.1533 17.8779 69.3438 17.8369 69.4844 17.7959V18.9121C69.3262 18.9883 69.0918 19.0498 68.7812 19.0967C68.4766 19.1494 68.2012 19.1758 67.9551 19.1758C66.0918 19.1758 65.1602 18.1943 65.1602 16.2314V10.501H63.7803V9.79785L65.1602 9.19141L65.7754 7.13477H66.6191V9.36719H69.4141V10.501H66.6191V16.1699C66.6191 16.75 66.7568 17.1953 67.0322 17.5059C67.3076 17.8164 67.6855 17.9717 68.166 17.9717ZM75.4873 19.1758C74.0635 19.1758 72.9385 18.7422 72.1123 17.875C71.292 17.0078 70.8818 15.8037 70.8818 14.2627C70.8818 12.71 71.2627 11.4766 72.0244 10.5625C72.792 9.64844 73.8203 9.19141 75.1094 9.19141C76.3164 9.19141 77.2715 9.58984 77.9746 10.3867C78.6777 11.1777 79.0293 12.2236 79.0293 13.5244V14.4473H72.3936C72.4229 15.5781 72.707 16.4365 73.2461 17.0225C73.791 17.6084 74.5557 17.9014 75.54 17.9014C76.5771 17.9014 77.6025 17.6846 78.6162 17.251V18.5518C78.1006 18.7744 77.6113 18.9326 77.1484 19.0264C76.6914 19.126 76.1377 19.1758 75.4873 19.1758ZM75.0918 10.4131C74.3184 10.4131 73.7002 10.665 73.2373 11.1689C72.7803 11.6729 72.5107 12.3701 72.4287 13.2607H77.4648C77.4648 12.3408 77.2598 11.6377 76.8496 11.1514C76.4395 10.6592 75.8535 10.4131 75.0918 10.4131ZM93.8037 19V12.7334C93.8037 11.9658 93.6396 11.3916 93.3115 11.0107C92.9834 10.624 92.4736 10.4307 91.7822 10.4307C90.874 10.4307 90.2031 10.6914 89.7695 11.2129C89.3359 11.7344 89.1191 12.5371 89.1191 13.6211V19H87.6602V12.7334C87.6602 11.9658 87.4961 11.3916 87.168 11.0107C86.8398 10.624 86.3271 10.4307 85.6299 10.4307C84.7158 10.4307 84.0449 10.7061 83.6172 11.2568C83.1953 11.8018 82.9844 12.6982 82.9844 13.9463V19H81.5254V9.36719H82.7119L82.9492 10.6855H83.0195C83.2949 10.2168 83.6816 9.85059 84.1797 9.58691C84.6836 9.32324 85.2461 9.19141 85.8672 9.19141C87.373 9.19141 88.3574 9.73633 88.8203 10.8262H88.8906C89.1777 10.3223 89.5938 9.92383 90.1387 9.63086C90.6836 9.33789 91.3047 9.19141 92.002 9.19141C93.0918 9.19141 93.9062 9.47266 94.4453 10.0352C94.9902 10.5918 95.2627 11.4854 95.2627 12.7158V19H93.8037Z" fill="white"/>
<path d="M6.23077 12L0 3H2.76923L9 12L2.76923 21H0L6.23077 12Z" fill="white"/>
</svg>
